<svg width="180" height="180" viewBox="0 0 180 180" fill="none" xmlns="http://www.w3.org/2000/svg">
  <rect width="180" height="180" rx="52" fill="#E5FAF5"/>
  <path d="M56 83c-9-18 6-36 26-27 0-25 30-31 39-8 20-8 36 10 27 30" fill="#53C66E"/>
  <path d="M51 76c16 14 32 19 48 14M85 49c5 20 7 37 6 50M121 48c-7 22-16 38-29 49" stroke="#159F55" stroke-width="7" stroke-linecap="round"/>
  <path d="M36 84h108l-12 57H48L36 84z" fill="#F04F45"/>
  <path d="M48 102h84" stroke="#FF9189" stroke-width="8" stroke-linecap="round"/>
</svg>
