<svg width="420" height="260" viewBox="0 0 420 260" fill="none" xmlns="http://www.w3.org/2000/svg">
  <rect width="420" height="260" rx="32" fill="#E7FAF6"/>
  <circle cx="96" cy="82" r="38" fill="#FFFFFF" opacity=".82"/>
  <circle cx="134" cy="102" r="26" fill="#FFFFFF" opacity=".7"/>
  <path d="M0 213c33-40 75-60 126-59 50 1 84 29 128 30 55 1 98-34 166-82v158H0v-47z" fill="#78DDBA"/>
  <path d="M255 87h113v128H255z" fill="#FFBC31"/>
  <rect x="235" y="64" width="153" height="48" rx="16" fill="#FFD45E"/>
  <rect x="301" y="64" width="23" height="151" fill="#F2A31B"/>
  <path d="M307 64c-35-5-43-32-23-42 20-10 31 16 28 42h-5zM319 64c35-5 43-32 23-42-20-10-31 16-28 42h5z" fill="#FFC12C"/>
  <path d="M314 130l12 25 28 4-20 19 5 27-25-13-25 13 5-27-20-19 28-4 12-25z" fill="#FFF0A8"/>
  <path d="M57 224c12-51 42-88 89-111 1 55-29 92-89 111z" fill="#0B998B"/>
  <path d="M111 226c9-44 34-75 74-92-1 47-26 78-74 92z" fill="#60D681"/>
  <path d="M370 42l7 15 17 2-12 12 3 17-15-8-15 8 3-17-12-12 17-2 7-15z" fill="#FFCE3D"/>
</svg>
