<svg width="320" height="220" viewBox="0 0 320 220" fill="none" xmlns="http://www.w3.org/2000/svg">
  <rect x="22" y="24" width="276" height="172" rx="38" fill="#E8F9F5"/>
  <rect x="74" y="42" width="142" height="150" rx="22" fill="#FFFFFF"/>
  <rect x="94" y="66" width="82" height="12" rx="6" fill="#28B7A7"/>
  <rect x="94" y="98" width="96" height="10" rx="5" fill="#C4EDE6"/>
  <rect x="94" y="126" width="82" height="10" rx="5" fill="#C4EDE6"/>
  <rect x="94" y="154" width="72" height="10" rx="5" fill="#C4EDE6"/>
  <circle cx="76" cy="102" r="19" fill="#F6B347"/>
  <path d="M67 102l6 6 12-14" stroke="#FFFFFF" stroke-width="7" stroke-linecap="round" stroke-linejoin="round"/>
  <circle cx="232" cy="78" r="35" fill="#FFE4A8"/>
  <rect x="212" y="112" width="62" height="58" rx="16" fill="#2F9E6D"/>
  <path d="M228 142h30M243 127v30" stroke="#FFFFFF" stroke-width="8" stroke-linecap="round"/>
  <path d="M250 47l5 10 11 2-8 8 2 11-10-5-10 5 2-11-8-8 11-2 5-10z" fill="#E55D4E"/>
</svg>
