<svg width="320" height="220" viewBox="0 0 320 220" fill="none" xmlns="http://www.w3.org/2000/svg">
  <rect x="18" y="26" width="284" height="168" rx="42" fill="#DDF8F1"/>
  <circle cx="256" cy="62" r="28" fill="#FFE4A8"/>
  <path d="M55 168c20-43 54-70 91-70 47 0 69 43 119 70H55z" fill="#7ED8C8"/>
  <path d="M65 167c30-26 55-39 82-39 36 0 58 19 93 39H65z" fill="#28B7A7"/>
  <rect x="68" y="55" width="114" height="91" rx="22" fill="#FFFFFF"/>
  <path d="M93 121l22-26 18 16 30-39" stroke="#24A99B" stroke-width="10" stroke-linecap="round" stroke-linejoin="round"/>
  <circle cx="94" cy="121" r="8" fill="#F6B347"/>
  <circle cx="115" cy="95" r="8" fill="#F6B347"/>
  <circle cx="133" cy="111" r="8" fill="#F6B347"/>
  <circle cx="163" cy="72" r="8" fill="#F6B347"/>
  <rect x="202" y="86" width="58" height="78" rx="18" fill="#FFFFFF"/>
  <circle cx="231" cy="112" r="16" fill="#FFCF6D"/>
  <path d="M217 147c5-12 23-18 35 0" stroke="#E55D4E" stroke-width="8" stroke-linecap="round"/>
  <path d="M47 63l6 12 13 2-10 9 3 13-12-7-12 7 3-13-10-9 13-2 6-12z" fill="#F6B347"/>
  <path d="M263 142l4 8 9 1-7 6 2 9-8-5-8 5 2-9-7-6 9-1 4-8z" fill="#FFFFFF"/>
</svg>
