<svg width="96" height="96" viewBox="0 0 96 96" fill="none" xmlns="http://www.w3.org/2000/svg">
  <rect width="96" height="96" rx="30" fill="#E0F8F3"/>
  <path d="M20 42l28-22 28 22v30a6 6 0 0 1-6 6H26a6 6 0 0 1-6-6V42z" fill="#16A99E"/>
  <circle cx="35" cy="52" r="6" fill="white"/>
  <circle cx="48" cy="48" r="7" fill="white"/>
  <circle cx="61" cy="52" r="6" fill="white"/>
  <path d="M29 68c2-8 14-8 16 0M40 68c3-10 13-10 16 0M51 68c2-8 14-8 16 0" stroke="white" stroke-width="5" stroke-linecap="round"/>
</svg>
