<svg width="128" height="128" viewBox="0 0 128 128" fill="none" xmlns="http://www.w3.org/2000/svg">
  <rect width="128" height="128" rx="36" fill="#DDF8F1"/>
  <circle cx="64" cy="52" r="28" fill="#F6B347"/>
  <path d="M34 102c8-22 24-33 30-33s22 11 30 33H34z" fill="#28B7A7"/>
  <circle cx="54" cy="53" r="5" fill="#2F4858"/>
  <circle cx="74" cy="53" r="5" fill="#2F4858"/>
  <path d="M55 65c5 5 13 5 18 0" stroke="#2F4858" stroke-width="5" stroke-linecap="round"/>
  <path d="M40 42c8-18 33-26 49-8 10 2 17 10 18 21-16-2-25-9-31-18-10 11-21 17-36 17 0-4 0-8 0-12z" fill="#2F4858"/>
</svg>
